<svg width="16" height="19" viewBox="0 0 16 19" fill="none" xmlns="http://www.w3.org/2000/svg">
<path d="M7.76848 10.4067C6.86285 10.4077 5.98485 10.1253 5.28399 9.60771C4.58312 9.09007 4.10273 8.36918 3.92463 7.56779C3.91043 7.48337 3.91674 7.39718 3.94312 7.31518C3.96949 7.23318 4.01531 7.15734 4.07738 7.09291C4.13946 7.02848 4.21632 6.977 4.30263 6.94204C4.38894 6.90708 4.48264 6.88948 4.57723 6.89044C4.7327 6.8884 4.88388 6.93653 5.00352 7.02615C5.12317 7.11578 5.20342 7.24102 5.22984 7.37931C5.35275 7.90877 5.67379 8.38393 6.13904 8.72497C6.6043 9.06602 7.18542 9.25218 7.7848 9.25218C8.38417 9.25218 8.9653 9.06602 9.43055 8.72497C9.8958 8.38393 10.2168 7.90877 10.3398 7.37931C10.3662 7.24102 10.4464 7.11578 10.5661 7.02615C10.6857 6.93653 10.8369 6.8884 10.9924 6.89044C11.087 6.88948 11.1807 6.90708 11.267 6.94204C11.3533 6.977 11.4301 7.02848 11.4922 7.09291C11.5543 7.15734 11.6001 7.23318 11.6265 7.31518C11.6529 7.39718 11.6592 7.48337 11.645 7.56779C11.4658 8.37416 10.9806 9.09889 10.273 9.61711C9.5654 10.1353 8.6797 10.4146 7.76848 10.4067Z" fill="#373737"/>
<path d="M13.5767 18.17H1.96027C1.69472 18.1703 1.43187 18.1218 1.18772 18.0275C0.943575 17.9333 0.723229 17.7952 0.540089 17.6216C0.356948 17.4481 0.214842 17.2427 0.122415 17.018C0.0299875 16.7933 -0.0108289 16.554 0.00244899 16.3147L0.531061 6.16039C0.552938 5.70515 0.768827 5.27514 1.13365 4.96015C1.49846 4.64516 1.98401 4.46954 2.48888 4.46997H13.0481C13.5529 4.46954 14.0385 4.64516 14.4033 4.96015C14.7681 5.27514 14.984 5.70515 15.0059 6.16039L15.5345 16.3147C15.5478 16.554 15.507 16.7933 15.4145 17.018C15.3221 17.2427 15.18 17.4481 14.9969 17.6216C14.8137 17.7952 14.5934 17.9333 14.3492 18.0275C14.1051 18.1218 13.8422 18.1703 13.5767 18.17ZM2.48888 5.65385C2.3158 5.65385 2.14981 5.71591 2.02742 5.82636C1.90503 5.93682 1.83627 6.08663 1.83627 6.24284L1.30766 16.3736C1.30324 16.4533 1.31684 16.5331 1.34765 16.608C1.37846 16.6829 1.42583 16.7514 1.48688 16.8092C1.54792 16.8671 1.62137 16.9131 1.70275 16.9445C1.78414 16.9759 1.87175 16.9921 1.96027 16.992H13.5767C13.6652 16.9921 13.7528 16.9759 13.8342 16.9445C13.9156 16.9131 13.989 16.8671 14.0501 16.8092C14.1111 16.7514 14.1585 16.6829 14.1893 16.608C14.2201 16.5331 14.2337 16.4533 14.2293 16.3736L13.7007 6.21929C13.7007 6.06307 13.6319 5.91326 13.5095 5.8028C13.3871 5.69235 13.2211 5.63029 13.0481 5.63029L2.48888 5.65385Z" fill="#373737"/>
<path d="M11.6841 5.06471H10.3789V4.03397C10.3789 3.40912 10.1038 2.80987 9.61428 2.36804C9.12473 1.92621 8.46075 1.67799 7.76842 1.67799C7.0761 1.67799 6.41212 1.92621 5.92257 2.36804C5.43302 2.80987 5.158 3.40912 5.158 4.03397V5.06471H3.85278V4.03397C3.85278 3.0967 4.26532 2.19782 4.99965 1.53507C5.73397 0.872328 6.72993 0.5 7.76842 0.5C8.80692 0.5 9.80288 0.872328 10.5372 1.53507C11.2715 2.19782 11.6841 3.0967 11.6841 4.03397V5.06471Z" fill="#373737"/>
</svg>
