<svg width="13" height="14" viewBox="0 0 13 14" fill="none" xmlns="http://www.w3.org/2000/svg">
<path d="M5.2321 10.9603C6.39405 10.9603 7.52279 10.5726 8.43948 9.85848L11.8979 13.3174C12.1563 13.567 12.5679 13.5598 12.8174 13.3014C13.0609 13.0494 13.0609 12.6498 12.8174 12.3977L9.35903 8.93879C11.1308 6.65773 10.7182 3.37208 8.43748 1.60007C6.15677 -0.171946 2.87164 0.240694 1.0999 2.52175C-0.671844 4.80281 -0.259267 8.08847 2.02145 9.86048C2.93964 10.5739 4.06939 10.9609 5.2321 10.9603ZM2.45329 2.95166C3.988 1.41669 6.47625 1.41666 8.01099 2.95161C9.54573 4.48655 9.54576 6.97518 8.01105 8.51015C6.47634 10.0451 3.98808 10.0451 2.45335 8.51021L2.45329 8.51015C0.918581 6.98639 0.909539 4.50683 2.43307 2.97189L2.45329 2.95166Z" fill="#1E1E1E"/>
</svg>
