<svg width="62" height="16" viewBox="0 0 62 16" fill="none" xmlns="http://www.w3.org/2000/svg">
<path d="M23.1841 4.1709H19.7532C19.5184 4.1709 19.3187 4.3417 19.2818 4.57335L17.8941 13.3714C17.8877 13.4122 17.8902 13.454 17.9014 13.4938C17.9127 13.5336 17.9325 13.5705 17.9594 13.6019C17.9863 13.6333 18.0197 13.6585 18.0573 13.6757C18.0949 13.693 18.1358 13.7018 18.1772 13.7017H19.8153C20.0497 13.7017 20.2498 13.5309 20.2863 13.2988L20.6604 10.9256C20.6964 10.6935 20.897 10.5227 21.1313 10.5227H22.2174C24.4776 10.5227 25.7818 9.42935 26.1225 7.26206C26.2757 6.31385 26.1288 5.56889 25.6854 5.04701C25.1973 4.4742 24.3324 4.1709 23.1841 4.1709ZM23.5798 7.38419C23.3923 8.61543 22.4518 8.61543 21.5419 8.61543H21.0241L21.3873 6.3161C21.3979 6.24883 21.4322 6.18757 21.4841 6.14336C21.5359 6.09915 21.6018 6.07491 21.6699 6.07499H21.9074C22.527 6.07499 23.1111 6.07499 23.4135 6.42787C23.5938 6.63878 23.6488 6.952 23.5803 7.38419H23.5798ZM33.4401 7.34453H31.7965C31.7283 7.34456 31.6624 7.3689 31.6106 7.41319C31.5588 7.45747 31.5245 7.51878 31.5139 7.5861L31.4418 8.04578L31.3264 7.87903C30.9704 7.36256 30.1772 7.18995 29.3858 7.18995C27.5705 7.18995 26.0193 8.56541 25.7174 10.4943C25.5605 11.4565 25.7841 12.3767 26.3298 13.0181C26.8301 13.6084 27.5466 13.8541 28.3993 13.8541C29.8622 13.8541 30.6734 12.9135 30.6734 12.9135L30.5999 13.37C30.5934 13.4109 30.5957 13.4527 30.6069 13.4925C30.618 13.5324 30.6377 13.5693 30.6645 13.6008C30.6913 13.6323 30.7247 13.6576 30.7622 13.675C30.7998 13.6923 30.8407 13.7013 30.8821 13.7013H32.3621C32.5973 13.7013 32.7961 13.5305 32.833 13.2984L33.7209 7.67488C33.7274 7.63415 33.7251 7.59247 33.714 7.55274C33.7029 7.513 33.6833 7.47615 33.6566 7.44473C33.6298 7.41331 33.5966 7.38808 33.5591 7.37078C33.5217 7.35348 33.4809 7.34453 33.4396 7.34453H33.4401ZM31.1498 10.5425C30.9911 11.4813 30.2462 12.1108 29.2962 12.1108C28.8189 12.1108 28.4376 11.9581 28.1929 11.6683C27.95 11.3799 27.8576 10.9702 27.9351 10.5137C28.0829 9.58303 28.841 8.93271 29.7761 8.93271C30.243 8.93271 30.622 9.08774 30.8717 9.38022C31.1223 9.67541 31.2214 10.0878 31.1498 10.5425ZM42.1903 7.34453H40.5395C40.3818 7.34453 40.234 7.42295 40.1447 7.55365L37.8675 10.908L36.9022 7.68479C36.8725 7.58648 36.8121 7.50032 36.7297 7.43904C36.6473 7.37776 36.5474 7.34462 36.4447 7.34453H34.8223C34.7767 7.34446 34.7318 7.35527 34.6913 7.37605C34.6508 7.39683 34.6158 7.42698 34.5892 7.46401C34.5627 7.50103 34.5454 7.54386 34.5387 7.58892C34.5321 7.63399 34.5363 7.67999 34.551 7.7231L36.3695 13.06L34.6596 15.4733C34.6291 15.5161 34.611 15.5665 34.6073 15.6189C34.6035 15.6713 34.6143 15.7237 34.6385 15.7704C34.6626 15.8171 34.6991 15.8562 34.744 15.8834C34.7889 15.9107 34.8405 15.925 34.8931 15.9249H36.5421C36.6984 15.9249 36.8449 15.8487 36.9342 15.7203L42.4251 7.79386C42.4551 7.75102 42.4727 7.7008 42.476 7.64866C42.4794 7.59652 42.4684 7.54446 42.4442 7.49813C42.4201 7.4518 42.3837 7.41299 42.339 7.38591C42.2943 7.35883 42.243 7.34452 42.1908 7.34453H42.1903Z" fill="#253B80"/>
<path d="M47.6549 4.17135H44.223C43.9887 4.17135 43.7895 4.34215 43.7525 4.5738L42.3649 13.3718C42.3584 13.4126 42.3608 13.4543 42.372 13.4941C42.3832 13.5339 42.4028 13.5707 42.4297 13.6022C42.4565 13.6336 42.4898 13.6588 42.5274 13.6761C42.5649 13.6933 42.6057 13.7022 42.647 13.7022H44.4078C44.4873 13.702 44.5641 13.6736 44.6244 13.6218C44.6847 13.5701 44.7246 13.4986 44.7368 13.4201L45.1307 10.926C45.1667 10.6939 45.3673 10.5231 45.6012 10.5231H46.6873C48.9474 10.5231 50.2517 9.4298 50.5928 7.26251C50.7465 6.3143 50.5987 5.56934 50.1548 5.04746C49.6676 4.47465 48.8028 4.17135 47.6549 4.17135ZM48.0506 7.38464C47.8636 8.61588 46.923 8.61588 46.0127 8.61588H45.4957L45.8594 6.31655C45.8699 6.24935 45.904 6.18811 45.9557 6.14389C46.0073 6.09967 46.0731 6.07539 46.1411 6.07544H46.3786C46.9974 6.07544 47.5823 6.07544 47.8847 6.42832C48.065 6.63923 48.1191 6.95245 48.0506 7.38464ZM57.9104 7.34499H56.2682C56.2001 7.34486 56.1342 7.36917 56.0825 7.4135C56.0308 7.45782 55.9967 7.51923 55.9865 7.58655L55.9135 8.04623L55.7981 7.87948C55.4425 7.36301 54.6498 7.19041 53.858 7.19041C52.0427 7.19041 50.4923 8.56586 50.1904 10.4947C50.034 11.4569 50.2562 12.3772 50.802 13.0185C51.3035 13.6089 52.0188 13.8545 52.8714 13.8545C54.3343 13.8545 55.1455 12.9139 55.1455 12.9139L55.0721 13.3705C55.0655 13.4114 55.068 13.4532 55.0792 13.4931C55.0904 13.533 55.1102 13.5699 55.1371 13.6014C55.164 13.6329 55.1974 13.6582 55.2351 13.6755C55.2727 13.6928 55.3137 13.7018 55.3551 13.7017H56.8347C57.069 13.7017 57.2687 13.5309 57.3052 13.2988L58.1939 7.67533C58.2002 7.63442 58.1976 7.59263 58.1862 7.55283C58.1748 7.51304 58.155 7.47618 58.128 7.44478C58.101 7.41339 58.0675 7.38822 58.0299 7.37099C57.9923 7.35376 57.9514 7.34489 57.91 7.34499H57.9104ZM55.6201 10.543C55.4624 11.4817 54.7165 12.1113 53.7665 12.1113C53.2901 12.1113 52.9079 11.9585 52.6632 11.6687C52.4203 11.3803 52.3288 10.9706 52.4054 10.5141C52.5542 9.58348 53.3108 8.93316 54.2464 8.93316C54.7129 8.93316 55.0924 9.08819 55.342 9.38067C55.5935 9.67586 55.6926 10.0882 55.6201 10.543ZM59.8474 4.41291L58.439 13.3723C58.4326 13.413 58.4351 13.4547 58.4463 13.4944C58.4575 13.5341 58.4772 13.5709 58.504 13.6023C58.5308 13.6337 58.5641 13.6588 58.6016 13.6761C58.6391 13.6933 58.6799 13.7022 58.7212 13.7022H60.1367C60.372 13.7022 60.5716 13.5314 60.6077 13.2993L61.9967 4.50169C62.0032 4.46088 62.0008 4.41914 61.9896 4.37934C61.9784 4.33955 61.9587 4.30266 61.9319 4.27121C61.9051 4.23977 61.8718 4.21451 61.8342 4.19719C61.7967 4.17987 61.7559 4.1709 61.7145 4.1709H60.1291C60.061 4.17125 59.9953 4.19578 59.9437 4.24012C59.8921 4.28446 59.858 4.3457 59.8474 4.41291Z" fill="#179BD7"/>
<path d="M3.64502 15.413L3.90731 13.7464L3.32324 13.7329H0.532227L2.47147 1.43497C2.47721 1.39735 2.49632 1.36307 2.5253 1.3384C2.55427 1.31374 2.59116 1.30034 2.62921 1.30067H7.33513C8.89716 1.30067 9.97562 1.6256 10.5385 2.26736C10.8022 2.56841 10.9703 2.88298 11.0514 3.22909C11.137 3.59234 11.1384 4.02678 11.055 4.55587L11.0491 4.59418V4.93354L11.3128 5.08316C11.5354 5.20079 11.7116 5.33554 11.8473 5.49012C12.0726 5.7479 12.2191 6.07464 12.2808 6.46267C12.3444 6.86152 12.3232 7.33607 12.2191 7.87328C12.0987 8.4916 11.9036 9.0297 11.6409 9.47001C11.409 9.86468 11.0972 10.2065 10.7255 10.4737C10.3763 10.7215 9.9612 10.9095 9.4925 11.0298C9.03777 11.1483 8.5195 11.2083 7.9512 11.2083H7.5848C7.32341 11.2083 7.06878 11.3024 6.86913 11.4714C6.66964 11.6422 6.53724 11.8783 6.49553 12.1375L6.46849 12.2876L6.00429 15.2251L5.98356 15.3333C5.97815 15.3671 5.96824 15.3842 5.95427 15.3955C5.94072 15.4068 5.9237 15.4131 5.90605 15.4135H3.64502V15.413Z" fill="#253B80"/>
<path d="M11.5639 4.62903C11.55 4.71916 11.5337 4.81065 11.5157 4.90484C10.8951 8.0911 8.77202 9.19209 6.06033 9.19209H4.67947C4.34822 9.19209 4.0688 9.43275 4.01698 9.75994L3.30987 14.2428L3.10977 15.5137C3.10183 15.5641 3.1049 15.6156 3.11878 15.6647C3.13266 15.7138 3.15701 15.7594 3.19015 15.7982C3.2233 15.837 3.26446 15.8681 3.3108 15.8895C3.35714 15.9109 3.40756 15.922 3.45859 15.922H5.9071C6.19733 15.922 6.4434 15.7115 6.48937 15.4253L6.51325 15.301L6.97429 12.3752L7.00404 12.2148C7.0491 11.9277 7.29607 11.7168 7.58585 11.7168H7.95225C10.3246 11.7168 12.1818 10.7537 12.7249 7.96626C12.9516 6.80172 12.8339 5.82962 12.2341 5.14595C12.044 4.93436 11.8169 4.75919 11.5639 4.62903Z" fill="#179BD7"/>
<path d="M10.9166 4.37174C10.7185 4.31445 10.5169 4.26974 10.3132 4.23789C9.91057 4.17602 9.50368 4.14633 9.09636 4.1491H5.4076C5.26728 4.14904 5.13155 4.19916 5.02494 4.2904C4.91833 4.38164 4.84785 4.50799 4.82624 4.64665L4.04206 9.61712L4.01953 9.76223C4.04405 9.60411 4.1243 9.45996 4.24579 9.35583C4.36728 9.25169 4.52201 9.19443 4.68202 9.19438H6.06288C8.77458 9.19438 10.8977 8.09294 11.5183 4.90714C11.5368 4.81294 11.5525 4.72101 11.5665 4.63132C11.4027 4.54554 11.2321 4.47363 11.0563 4.41635C11.0113 4.40103 10.9644 4.38661 10.9171 4.37264L10.9166 4.37174Z" fill="#222D65"/>
<path d="M4.82355 4.64608C4.84501 4.50743 4.91547 4.38108 5.02214 4.28995C5.12881 4.19883 5.26462 4.14897 5.40491 4.14944H9.09322C9.53037 4.14944 9.93823 4.17783 10.3105 4.23822C10.5624 4.27781 10.8109 4.33702 11.0536 4.41533C11.2293 4.47283 11.4 4.54473 11.5638 4.63031C11.7486 3.4527 11.5625 2.6514 10.9257 1.92537C10.224 1.12587 8.95712 0.783813 7.33605 0.783813H2.63012C2.29888 0.783813 2.01676 1.02492 1.96538 1.35211L0.00495411 13.7767C-0.0041643 13.8344 -0.000666269 13.8934 0.0152073 13.9496C0.0310809 14.0059 0.0589527 14.058 0.0969033 14.1024C0.134854 14.1468 0.181981 14.1825 0.23504 14.2069C0.288098 14.2314 0.345827 14.2441 0.40425 14.2441H3.30929L4.03938 9.6161L4.82355 4.64653V4.64608Z" fill="#253B80"/>
</svg>
